<svg height="477pt" viewBox="-29 0 477 477.66938" width="477pt" xmlns="http://www.w3.org/2000/svg"><path d="m399.503906 390.632812 18.402344-23.359374c1.652344-2.101563 2.148438-4.894532 1.316406-7.4375-.828125-2.542969-2.878906-4.5-5.453125-5.21875l-28.625-8c-10.585937-2.929688-21.796875-2.699219-32.257812.664062-.027344-11.035156-3.300781-21.816406-9.414063-31l-16.480468-24.722656c-1.367188-2.347656-3.941407-3.722656-6.65625-3.558594-1.738282.019531-3.421876.601562-4.800782 1.664062-9.996094-7.542968-21.824218-12.296874-34.261718-13.769531l-24.65625-2.902343 16.542968-4.136719c15.058594-3.765625 26.726563-15.667969 30.1875-30.800781 3.464844-15.132813-1.871094-30.925782-13.796875-40.863282-20.871093-17.417968-46.335937-28.417968-73.328125-31.679687l9.035156-1.359375c17.445313-2.671875 31.15625-16.328125 33.898438-33.765625 2.742188-17.433594-6.117188-34.640625-21.898438-42.539063l-2.769531-1.375c-18.847656-9.4375-39.164062-15.589844-60.078125-18.191406l-22.34375-2.785156c-8.335937-1.050782-16.78125-.878906-25.066406.503906-25.492188 4.222656-46.550781 22.21875-54.6875 46.742188l-.800781 2.402343c-2.75 8.3125-2.75 17.289063 0 25.597657l4 12c2.359375 7.007812 6.605469 13.230468 12.273437 17.976562l-5.535156 1.007812c-17.75 3.171876-31.351562 17.546876-33.539062 35.441407l-1.894532 15.023437c-2.21875 18.21875 7.820313 35.722656 24.664063 43.007813l20.9375 8.976562-20.746094 2.398438c-20.707031 2.425781-39.300781 13.835937-50.839844 31.203125l-8.574219 12.796875c-15.898437 23.867187-15.898437 54.945312 0 78.808593l5.992188 8.945313c13.15625 19.796875 35.355469 31.6875 59.125 31.671875h179.671875l-1.183594 29.359375c-.101562 2.667969 1.132813 5.214844 3.292969 6.78125 2.160156 1.570313 4.960938 1.957031 7.46875 1.035156l27.917969-10.3125c10.378906-3.828125 19.386719-10.65625 25.875-19.617187.65625.921875 1.167969 1.882812 1.886719 2.777344 6.359374 7.566406 14.570312 13.355468 23.832031 16.800781l27.839843 10.320312c2.507813.929688 5.3125.546875 7.480469-1.023437 2.164063-1.570313 3.402344-4.121094 3.296875-6.792969l-1.203125-29.753906c-.449219-11-4.140625-21.621094-10.613281-30.527344 10.472656-3.390625 19.714844-9.796875 26.566406-18.414063zm-312.871094-254.878906c-1.667968-5.039062-1.667968-10.484375 0-15.523437l.800782-2.398438c6.273437-18.898437 22.503906-32.761719 42.152344-36 6.753906-1.132812 13.636718-1.273437 20.429687-.417969l22.351563 2.792969c19.121093 2.367188 37.699218 7.976563 54.929687 16.59375l2.757813 1.382813c9.550781 4.769531 14.917968 15.167968 13.273437 25.714844-1.644531 10.546874-9.921875 18.820312-20.472656 20.453124l-76.375 11.726563-29.128907 4.160156c-11.738281 1.71875-23.011718-5.25-26.726562-16.519531zm-8.878906 114.742188c-10.3125-4.457032-16.457031-15.171875-15.097656-26.320313l1.871094-14.984375c1.339844-10.949218 9.664062-19.746094 20.519531-21.6875l59.777344-10.863281c1.492187-.273437 3.003906-.414063 4.519531-.417969.640625 0 1.289062 0 1.9375.082032l57.136719 4.398437c26.058593 1.953125 50.847656 12.027344 70.886719 28.800781 7.296874 6.078125 10.558593 15.742188 8.441406 25-2.117188 9.257813-9.253906 16.542969-18.464844 18.847656l-39.632812 9.894532c-2 .503906-4.054688.761718-6.121094.761718h-109.085938c-3.417968.003907-6.804687-.691406-9.945312-2.039062zm188.0625 161.3125c-2.394531 3.824218-4.328125 7.914062-5.769531 12.191406h-182.671875c-18.421875.019531-35.628906-9.191406-45.832031-24.527344l-5.984375-8.945312c-12.308594-18.484375-12.308594-42.554688 0-61.039063l8.570312-12.800781c8.941406-13.457031 23.351563-22.296875 39.398438-24.175781l85.105468-10c13.949219-1.609375 28.035157-1.609375 41.984376 0l78.824218 9.289062c9.75 1.183594 19 4.980469 26.773438 10.984375l-9 13.503906c-6.085938 9.164063-9.363282 19.910157-9.429688 30.910157-10.476562-3.40625-21.722656-3.617188-32.320312-.613281l-28.640625 8c-2.578125.71875-4.621094 2.683593-5.449219 5.226562-.828125 2.546875-.328125 5.335938 1.328125 7.433594l18.511719 23.425781c6.902344 8.605469 16.175781 15.003906 26.671875 18.398437-.679688.953126-1.453125 1.769532-2.070313 2.738282zm33-39.808594c3.070313 3.070312 5.652344 6.59375 7.648438 10.449219l1.726562 3.398437-3.75.59375c-5.960937.90625-11.726562 2.800782-17.066406 5.597656-2.089844 1.09375-4.105469 2.328126-6.03125 3.695313-10.855469-1.058594-20.824219-6.464844-27.640625-14.980469l-11.015625-13.929687 17.050781-4.800781c11.390625-3.296876 23.660157-1.308594 33.429688 5.417968 2.039062 1.3125 3.933593 2.839844 5.648437 4.558594zm-9.839844 79.878906-16.671874 6.160156.726562-17.863281c.050781-2.191406.339844-4.371093.875-6.496093 1.949219-9.3125 7.148438-17.632813 14.664062-23.472657 1.925782-1.53125 4-2.871093 6.191407-4 3.804687-1.992187 7.917969-3.34375 12.167969-4l3.757812-.589843-.597656 3.75c-.929688 5.769531-.929688 11.648437 0 17.417968l.039062.261719.046875.304687c.386719 2.25.921875 4.46875 1.601563 6.648438-4.246094 10.121094-12.488282 18.03125-22.777344 21.855469zm33.472657-73.292968-1.753907-3.433594c-2.75-5.339844-6.316406-10.214844-10.566406-14.457032-1.710937-1.691406-3.542968-3.25-5.488281-4.664062-2.300781-10.652344-.1875-21.785156 5.855469-30.855469l9.816406-14.777343 9.832031 14.753906c4.40625 6.601562 6.753907 14.359375 6.753907 22.296875 0 1.839843-.132813 3.679687-.402344 5.503906-.269532 1.910156-.675782 3.800781-1.214844 5.65625-.664062 2.347656-1.546875 4.632813-2.640625 6.816406-1.949219 3.839844-4.472656 7.363281-7.480469 10.445313zm29.214843 73.292968c-6.628906-2.460937-12.503906-6.59375-17.0625-12-2.964843-3.613281-5.273437-7.722656-6.816406-12.136718-.824218-2.246094-1.417968-4.574219-1.769531-6.941407v-.257812l-.039063-.285157c-.660156-4.097656-.660156-8.273437 0-12.371093l.59375-3.765625 3.285157 1.671875c1.589843.820312 3.222656 1.550781 4.898437 2.183593 3.992188 1.609376 8.164063 2.75 12.421875 3.390626 2.320313.320312 4.652344.515624 6.992188.585937 8.136719 7.210937 12.984375 17.425781 13.433593 28.285156l.71875 17.769531zm5.097657-55.925781c-.28125 0-1.21875 0-1.488281.070313-1.976563-.027344-3.949219-.183594-5.90625-.472657-3.015626-.453125-5.96875-1.257812-8.796876-2.398437-1.175781-.441406-2.328124-.953125-3.441406-1.527344l-3.382812-1.722656 2.75-2.742188c4.183594-4.277344 7.691406-9.167968 10.402344-14.503906 1.03125-2.101562 1.925781-4.269531 2.679687-6.488281 9.410156-5.546875 20.671875-7.027344 31.199219-4.105469l17.078125 4.800781-10.957031 13.914063c-7.335938 9.21875-18.339844 14.753906-30.113282 15.152344zm0 0"/><path d="m187.617188 48v-32c0-4.417969-3.582032-8-8-8-4.417969 0-8 3.582031-8 8v32c0 4.417969 3.582031 8 8 8 4.417968 0 8-3.582031 8-8zm0 0"/><path d="m219.617188 56c0 4.417969 3.582031 8 8 8 4.417968 0 8-3.582031 8-8v-8c0-4.417969-3.582032-8-8-8-4.417969 0-8 3.582031-8 8zm0 0"/><path d="m227.617188 32c4.417968 0 8-3.582031 8-8v-16c0-4.417969-3.582032-8-8-8-4.417969 0-8 3.582031-8 8v16c0 4.417969 3.582031 8 8 8zm0 0"/><path d="m35.617188 160c0 4.417969 3.582031 8 8 8 4.417968 0 8-3.582031 8-8v-8c0-4.417969-3.582032-8-8-8-4.417969 0-8 3.582031-8 8zm0 0"/><path d="m43.617188 136c4.417968 0 8-3.582031 8-8v-16c0-4.417969-3.582032-8-8-8-4.417969 0-8 3.582031-8 8v16c0 4.417969 3.582031 8 8 8zm0 0"/><path d="m123.617188 48c0 4.417969 3.582031 8 8 8 4.417968 0 8-3.582031 8-8v-8c0-4.417969-3.582032-8-8-8-4.417969 0-8 3.582031-8 8zm0 0"/><path d="m131.617188 24c4.417968 0 8-3.582031 8-8v-8c0-4.417969-3.582032-8-8-8-4.417969 0-8 3.582031-8 8v8c0 4.417969 3.582031 8 8 8zm0 0"/><path d="m283.617188 120c0 4.417969 3.582031 8 8 8 4.417968 0 8-3.582031 8-8v-32c0-4.417969-3.582032-8-8-8-4.417969 0-8 3.582031-8 8zm0 0"/><path d="m291.617188 72c4.417968 0 8-3.582031 8-8v-24c0-4.417969-3.582032-8-8-8-4.417969 0-8 3.582031-8 8v24c0 4.417969 3.582031 8 8 8zm0 0"/><path d="m283.617188 160c0 4.417969 3.582031 8 8 8 4.417968 0 8-3.582031 8-8v-8c0-4.417969-3.582032-8-8-8-4.417969 0-8 3.582031-8 8zm0 0"/><path d="m347.617188 208c0-4.417969-3.582032-8-8-8-4.417969 0-8 3.582031-8 8v8c0 4.417969 3.582031 8 8 8 4.417968 0 8-3.582031 8-8zm0 0"/><path d="m347.617188 160c0-4.417969-3.582032-8-8-8-4.417969 0-8 3.582031-8 8v24c0 4.417969 3.582031 8 8 8 4.417968 0 8-3.582031 8-8zm0 0"/><path d="m339.617188 240c-4.417969 0-8 3.582031-8 8v8c0 4.417969 3.582031 8 8 8 4.417968 0 8-3.582031 8-8v-8c0-4.417969-3.582032-8-8-8zm0 0"/><path d="m175.425781 232h23.941407c3.476562 0 6.9375-.425781 10.304687-1.273438l27.886719-6.964843c4.257812-1.101563 6.832031-5.425781 5.761718-9.691407-1.066406-4.265624-5.375-6.867187-9.648437-5.832031l-27.886719 6.96875c-2.09375.53125-4.242187.800781-6.402344.800781h-23.957031c-4.417969 0-8 3.582032-8 8 0 4.417969 3.582031 8 8 8zm0 0"/><path d="m123.617188 232c4.417968 0 8-3.582031 8-8s-3.582032-8-8-8h-4.753907c-6.152343-.011719-12.222656-1.441406-17.734375-4.183594l-5.9375-2.976562c-3.953125-1.976563-8.761718-.371094-10.734375 3.585937-1.976562 3.953125-.371093 8.757813 3.582031 10.734375l5.9375 2.96875c7.734376 3.847656 16.25 5.859375 24.886719 5.871094zm0 0"/><path d="m92.71875 388-5.222656-.726562c-13.78125-1.925782-26.671875-7.921876-37.023438-17.21875l-5.359375 5.9375-5 6.265624c12.660157 11.273438 28.382813 18.535157 45.175781 20.863282l5.222657.71875c.367187.054687.742187.082031 1.113281.082031 4.191406-.019531 7.660156-3.269531 7.949219-7.453125.289062-4.183594-2.703125-7.878906-6.855469-8.46875zm0 0"/><path d="m163.617188 392h-40c-4.417969 0-8 3.582031-8 8s3.582031 8 8 8h40c4.417968 0 8-3.582031 8-8s-3.582032-8-8-8zm0 0"/><path d="m219.617188 392h-24c-4.417969 0-8 3.582031-8 8s3.582031 8 8 8h24c4.417968 0 8-3.582031 8-8s-3.582032-8-8-8zm0 0"/><path d="m115.617188 136h16.800781c11.5.011719 22.746093-3.394531 32.308593-9.785156l11.347657-7.558594c3.675781-2.453125 4.667969-7.421875 2.214843-11.097656-2.453124-3.675782-7.421874-4.667969-11.097656-2.214844l-11.335937 7.558594c-6.9375 4.632812-15.09375 7.105468-23.4375 7.097656h-16.800781c-4.417969 0-8 3.582031-8 8s3.582031 8 8 8zm0 0"/></svg>