<?xml version="1.0" encoding="iso-8859-1"?>
<!-- Generator: Adobe Illustrator 19.0.0, SVG Export Plug-In . SVG Version: 6.00 Build 0)  -->
<svg version="1.1" id="Capa_1" xmlns="http://www.w3.org/2000/svg" xmlns:xlink="http://www.w3.org/1999/xlink" x="0px" y="0px"
	 viewBox="0 0 511.997 511.997" style="enable-background:new 0 0 511.997 511.997;" xml:space="preserve">
<g>
	<g>
		<path d="M469.696,457.064L342.652,308.538l74.404-74.404c8.514-8.515,13.618-19.523,14.374-30.998
			c0.78-11.849-3.135-22.721-11.024-30.61c-16.062-16.06-43.698-14.559-61.61,3.349l-6.113,6.113
			c-3.548,3.549-8.036,5.67-12.634,5.973c-4.224,0.279-8.026-1.047-10.711-3.731c-2.683-2.683-4.009-6.488-3.73-10.71
			c0.303-4.598,2.423-9.086,5.973-12.634l41.123-41.123c17.909-17.91,19.412-45.548,3.349-61.611
			c-16.062-16.06-43.699-14.557-61.61,3.35l-45.34,45.34c-3.955,3.956-8.964,6.321-14.102,6.659
			c-4.759,0.31-9.061-1.188-12.102-4.229c-3.04-3.04-4.543-7.338-4.229-12.101c0.338-5.14,2.703-10.147,6.658-14.103l10.33-10.33
			c8.514-8.514,13.619-19.522,14.375-30.997c0.78-11.85-3.134-22.722-11.024-30.611c-16.063-16.061-43.7-14.56-61.609,3.349
			l-69.201,69.201c-2.958,2.959-2.958,7.753,0,10.71c2.958,2.956,7.753,2.956,10.709,0l69.201-69.201
			c12.003-12.004,30.032-13.507,40.189-3.35c4.759,4.76,7.111,11.474,6.621,18.908c-0.514,7.807-4.055,15.366-9.971,21.282
			l-10.33,10.33c-6.553,6.553-10.482,15.012-11.062,23.818c-0.604,9.182,2.462,17.636,8.632,23.807
			c6.171,6.171,14.622,9.225,23.807,8.632c8.805-0.58,17.264-4.509,23.818-11.062l45.34-45.34
			c5.915-5.916,13.474-9.457,21.282-9.971c7.439-0.49,14.148,1.863,18.906,6.622c4.759,4.759,7.11,11.472,6.621,18.905
			c-0.514,7.808-4.055,15.367-9.971,21.282l-41.123,41.123c-6.146,6.147-9.831,14.085-10.375,22.351
			c-0.568,8.641,2.32,16.601,8.135,22.414c5.814,5.816,13.779,8.703,22.415,8.136c8.267-0.544,16.203-4.229,22.351-10.375
			l6.113-6.113c5.915-5.916,13.474-9.457,21.282-9.971c7.432-0.487,14.148,1.863,18.905,6.622
			c10.157,10.156,8.654,28.184-3.349,40.188l-73.569,73.569l-0.936-1.095l-13.793-17.481c0.644-1.456,1.234-2.944,1.751-4.47
			c4.522-13.338,3.579-27.638-2.656-40.267c-1.975-4.001-7.985-16.175-59.451-43.337c-24.603-12.984-48.171-23.355-48.405-23.457
			c-2.526-1.111-5.455-0.757-7.645,0.918c-2.19,1.675-3.298,4.41-2.889,7.137c0.502,3.347,12.405,82.263,23.835,105.418
			c6.234,12.628,17.012,22.072,30.35,26.595c5.555,1.882,11.275,2.818,16.974,2.818c2.99,0,5.974-0.259,8.924-0.771l13.781,17.465
			c0.029,0.042,0.054,0.086,0.084,0.128l4.41,6.068l-57.248,57.249c-5.916,5.916-13.474,9.457-21.282,9.971
			c-7.431,0.49-14.147-1.863-18.906-6.622c-4.759-4.759-7.111-11.473-6.621-18.906c0.514-7.808,4.055-15.367,9.971-21.282
			l5.661-5.662c6.146-6.146,9.832-14.084,10.375-22.35c0.568-8.641-2.319-16.601-8.135-22.415
			c-5.814-5.813-13.771-8.696-22.415-8.135c-8.266,0.544-16.202,4.229-22.35,10.375l-32.354,32.354
			c-5.916,5.916-13.475,9.457-21.283,9.971c-7.429,0.492-14.147-1.862-18.906-6.622c-4.759-4.758-7.111-11.472-6.621-18.906
			c0.514-7.808,4.055-15.367,9.971-21.282l36.572-36.573c13.799-13.799,14.889-35.163,2.429-47.625
			c-6.171-6.17-14.625-9.228-23.806-8.632c-8.806,0.58-17.265,4.508-23.818,11.062l-9.878,9.878
			c-5.916,5.916-13.474,9.457-21.282,9.971c-7.436,0.491-14.147-1.862-18.906-6.622c-4.759-4.758-7.111-11.472-6.621-18.905
			c0.514-7.808,4.055-15.367,9.971-21.282L116.9,116.4c2.958-2.959,2.958-7.753,0-10.71c-2.958-2.957-7.753-2.957-10.709,0
			l-75.274,75.274c-8.514,8.515-13.619,19.523-14.375,30.998c-0.781,11.85,3.135,22.721,11.024,30.61
			c16.062,16.06,43.7,14.56,61.609-3.349l9.878-9.879c3.955-3.955,8.964-6.32,14.102-6.658c4.767-0.309,9.061,1.189,12.102,4.23
			c6.554,6.554,5.465,18.31-2.429,26.203L86.257,289.69c-17.909,17.909-19.412,45.547-3.35,61.611
			c16.062,16.06,43.699,14.556,61.609-3.35l32.354-32.355c3.548-3.548,8.036-5.669,12.634-5.972
			c4.229-0.272,8.029,1.048,10.711,3.731c2.684,2.683,4.009,6.488,3.731,10.71c-0.303,4.598-2.423,9.086-5.973,12.634l-5.661,5.661
			c-8.514,8.515-13.619,19.523-14.375,30.998c-0.78,11.85,3.135,22.721,11.024,30.609c7.23,7.231,16.963,11.123,27.661,11.123
			c0.975,0,1.96-0.032,2.951-0.098c11.475-0.755,22.484-5.861,30.997-14.374l55.554-55.553l39.26,54.024
			c2.461,3.386,7.198,4.132,10.579,1.674c3.384-2.46,4.133-7.195,1.674-10.579l-48.406-66.61l15.734-12.415l133.221,155.748
			c5.863,6.855,5.766,17.108-0.227,23.85c-3.669,4.128-8.935,6.337-14.453,6.07c-5.516-0.272-10.542-2.989-13.788-7.457
			l-55.167-75.915c-2.46-3.385-7.197-4.133-10.579-1.674c-3.384,2.46-4.133,7.195-1.674,10.579l55.168,75.915
			c5.956,8.197,15.177,13.183,25.298,13.681c0.556,0.026,1.111,0.04,1.663,0.04c9.51,0,18.491-4.018,24.854-11.176
			C480.275,488.452,480.453,469.641,469.696,457.064z M286.497,290.715c-2.165,1.069-4.399,1.914-6.676,2.546
			c-0.004,0.001-0.008,0.002-0.012,0.004c-7.185,1.987-14.796,1.789-22.009-0.657c-9.507-3.222-17.188-9.954-21.632-18.955
			c-7.193-14.572-15.693-59.675-20.237-87.09c8.98,4.193,21.681,10.308,34.691,17.176c42.534,22.447,51.19,33.106,52.938,36.647
			C312.732,258.964,305.078,281.543,286.497,290.715z M300.095,311.492l-6.033-7.646c5.895-3.043,11.077-7.08,15.35-11.922
			l5.94,7.529L300.095,311.492z"/>
	</g>
</g>
<g>
	<g>
		<path d="M455.965,98.965c-21.828,0-39.586,17.758-39.586,39.587c0,21.829,17.758,39.587,39.586,39.587
			c21.829,0,39.587-17.758,39.587-39.587C495.552,116.723,477.794,98.965,455.965,98.965z M455.965,162.993
			c-13.476,0-24.44-10.964-24.44-24.441c0-13.477,10.964-24.441,24.44-24.441c13.477,0,24.441,10.964,24.441,24.441
			C480.406,152.029,469.442,162.993,455.965,162.993z"/>
	</g>
</g>
<g>
	<g>
		<path d="M145.686,399.942c-21.829,0-39.587,17.758-39.587,39.587c0,21.828,17.758,39.586,39.587,39.586
			s39.587-17.758,39.587-39.586C185.273,417.7,167.515,399.942,145.686,399.942z M145.686,463.969
			c-13.477,0-24.441-10.964-24.441-24.44c0-13.477,10.964-24.441,24.441-24.441s24.441,10.964,24.441,24.441
			C170.127,453.005,159.163,463.969,145.686,463.969z"/>
	</g>
</g>
<g>
</g>
<g>
</g>
<g>
</g>
<g>
</g>
<g>
</g>
<g>
</g>
<g>
</g>
<g>
</g>
<g>
</g>
<g>
</g>
<g>
</g>
<g>
</g>
<g>
</g>
<g>
</g>
<g>
</g>
</svg>
